<?xml version="1.0" encoding="UTF-8" standalone="no"?>
<svg width="1728" height="1125" viewBox="0 0 1728 1125" fill="none" version="1.1" id="svg99"
    sodipodi:docname="Group 232.svg" xmlns:inkscape="http://www.inkscape.org/namespaces/inkscape"
    xmlns:sodipodi="http://sodipodi.sourceforge.net/DTD/sodipodi-0.dtd" xmlns="http://www.w3.org/2000/svg"
    xmlns:svg="http://www.w3.org/2000/svg">
    <sodipodi:namedview id="namedview101" pagecolor="#ffffff" bordercolor="#000000" borderopacity="0.25"
        inkscape:showpageshadow="2" inkscape:pageopacity="0.0" inkscape:pagecheckerboard="0"
        inkscape:deskcolor="#d1d1d1" showgrid="false" />
    <g style="mix-blend-mode:luminosity" opacity="0.4" id="g8">
        <path
            d="m 1402.57,-693.952 c 60.64,4.062 105.68,58.659 97.13,118.898 -21.39,150.521 -65.01,297.225 -129.55,434.926 -13.13,28.043 -27.11,55.7472 -42.06,83.0193 -43.62,80.1537 -94.69,156.7059 -152.71,228.5057 -117.91,5.202 -234.823,23.471 -348.353,54.307 201.743,-166.2602 344.473,-385.383 418.673,-625.507 20.56,-66.45 35.87,-134.482 45.72,-203.46 7.82,-54.655 56,-94.351 111.12,-90.598 z"
            fill="#f4a69a" id="path2" />
        <path
            d="m 618.986,491.063 c -26.853,-54.541 -2.2,-120.965 54.198,-143.66 141.071,-56.812 289.972,-92.343 441.356,-105.32 30.95,-2.749 61.96,-4.465 93.09,-5.177 91.2,-2.274 182.89,3.535 273.96,17.905 62.93,99.088 136.63,190.833 219.4,273.494 -243.95,-90.522 -504.48,-104.363 -749.151,-48.485 -67.681,15.455 -134.117,36.202 -198.763,62.125 -51.224,20.601 -109.727,-1.246 -134.151,-50.852 z"
            fill="#ef7765" id="path4" />
        <path
            d="m 1528.09,-380.902 c 42.88,257.059 160.56,489.779 330.63,674.143 47.91,51.973 100,100.145 155.74,143.875 43.43,34.114 53.69,95.688 22.94,141.57 -33.79,50.479 -103.58,62.275 -151.42,24.731 -120.29,-94.168 -225.91,-206.012 -313.16,-331.438 -17.67,-25.445 -34.58,-51.341 -50.64,-77.96 -47.52,-77.758 -88.14,-160.119 -121.16,-246.2285 54.46,-104.7185 97.13,-215.0705 127.13,-328.7225 z"
            fill="#614a99" id="path6" />
    </g>
    <g style="mix-blend-mode:luminosity" opacity="0.4" id="g16">
        <path
            d="m -517.516,885.681 c 7.315,-53.19 58.2,-89.518 110.757,-78.27 131.326,28.114 257.918,75.586 375.2879,140.947 23.90345,13.298 47.4556,27.323 70.5677,42.175 67.9464,43.377 132.2614,93.097 191.9594,148.647 -2.678,104.22 6.221,208.37 26.402,310.32 -134.087,-188.03 -318.3924,-327.3 -525.424,-407.47 -57.291,-22.21 -116.3,-39.89 -176.479,-52.816 -47.681,-10.259 -79.694,-55.16 -72.992,-103.5 z"
            fill="#f4a69a" id="path10" />
        <path
            d="m 478.488,1649.17 c -49.717,20.31 -106.733,-5.51 -123.259,-56.61 -41.376,-127.81 -63.516,-261.21 -65.628,-395.41 -0.516,-27.45 -0.118,-54.88 1.17,-82.36 3.613,-80.5 14.379,-160.946 32.651,-240.311 91.195,-49.358 176.581,-108.651 254.52,-176.499 -94.794,209.403 -123.036,438.13 -88.863,657.18 9.451,60.59 23.642,120.42 42.505,178.98 14.999,46.41 -7.856,96.62 -53.074,115.09 z"
            fill="#ef7765" id="path12" />
        <path
            d="m -233.919,794.344 c 229.16687,-21.95 441.492,-111.321 614.432,-249.838 48.749,-39.019 94.408,-81.957 136.376,-128.377 32.737,-36.171 87.629,-41.424 126.167,-11.495 42.403,32.884 48.5,95.107 12.469,134.956 C 565.133,639.793 460.07,725.973 344.168,795.138 320.657,809.145 296.796,822.453 272.35,834.964 200.901,872.046 125.821,902.775 47.9063,926.563 -41.02,872.129 -135.636,827.727 -233.941,794.288 Z"
            fill="#614a99" id="path14" />
    </g>
    <defs id="defs97" />
</svg>
